<svg xmlns="http://www.w3.org/2000/svg" width="577.073" height="188.077" viewBox="-74.536 737.923 577.073 188.077"><g data-name="Component 3 – 1"><g data-name="Group 8"><path d="M325.572 926h26.787l-1.764-116.997h1.596v-1.526h-2.21v-15.979h2.21v-1.528h-3.476a9.961 9.961 0 0 0 .457-3.018c0-3.66-1.938-6.861-4.848-8.653a16.152 16.152 0 0 1-4.547-4.255v-.003c.228-.213.37-.511.37-.848 0-.48-.29-.891-.702-1.073l-.267-4.104c.18.033.36.055.546.055a3.046 3.046 0 0 0 3.017-2.651 2.56 2.56 0 0 1-2.306 1.452 2.56 2.56 0 0 1-1.11-4.866 3.047 3.047 0 0 0-2.652 3.019c0 1.348.886 2.48 2.1 2.88l-.272 4.215a1.173 1.173 0 0 0-.703 1.073c0 .337.143.635.37.848v.003a15.68 15.68 0 0 1-4.56 4.255c-2.896 1.792-4.837 4.993-4.837 8.653 0 1.057.159 2.061.463 3.018h-3.48v1.528h2.138v15.979h-2.138v1.526h1.596L325.572 926Zm20.37-131.617c0-.476.389-.864.865-.864h.425c.475 0 .863.388.863.864v13.094h-2.152v-13.094Zm-4.042 0c0-.476.389-.864.868-.864h.42c.476 0 .864.388.864.864v13.094H341.9v-13.094Zm-4.04 0c0-.476.39-.864.865-.864h.423c.48 0 .866.388.866.864v13.094h-2.153v-13.094Zm-4.04 0c0-.476.39-.864.868-.864h.419c.479 0 .867.388.867.864v13.095h-2.154v-13.095Zm-4.039 0c0-.476.386-.864.865-.864h.424c.478 0 .865.388.865.864v13.095h-2.154v-13.095Z" fill="#c2ae91" fill-rule="evenodd" data-name="Path 2174"/><path d="M323.553 808.673h30.815v3.558h-30.815v-3.558z" fill="#a5947a" fill-rule="evenodd" data-name="Rectangle 3"/><path d="M323.063 875.548h31.796v6.158h-31.796v-6.158z" fill="#a5947a" fill-rule="evenodd" data-name="Rectangle 4"/></g><g data-name="Group 9"><path d="M72.077 926h16.329l-1.493-99.025h.916v-.876H86.56v-9.162h1.268v-.877H85.83a5.722 5.722 0 0 0 .267-1.73 5.83 5.83 0 0 0-2.782-4.964 9.218 9.218 0 0 1-2.606-2.439l-.004-.002a.656.656 0 0 0 .216-.486.675.675 0 0 0-.404-.616l-.152-2.353c.1.019.203.033.31.033.888 0 1.62-.664 1.732-1.52a1.467 1.467 0 1 1-1.958-1.959 1.74 1.74 0 0 0-.317 3.383l-.156 2.416a.672.672 0 0 0-.404.616c0 .195.08.365.213.486v.002a8.94 8.94 0 0 1-2.613 2.439 5.828 5.828 0 0 0-2.512 6.694h-1.994v.877h1.225v9.162h-1.225v.876h.917L72.077 926Zm12.166-107.409c0-.274.222-.495.497-.495h.242c.275 0 .497.221.497.495v7.508h-1.236v-7.508Zm-2.317 0c0-.274.222-.495.497-.495h.242c.272 0 .496.221.496.495v7.508h-1.235v-7.508Zm-2.317 0c0-.274.225-.495.496-.495h.243c.274 0 .496.221.496.495v7.508h-1.235v-7.508Zm-2.317 0c0-.274.22-.495.496-.495h.242c.273 0 .497.221.497.495v7.509h-1.235v-7.509Zm-2.314 0c0-.274.22-.495.496-.495h.239c.275 0 .497.221.497.495v7.509h-1.232v-7.509Z" fill="#c2ae91" fill-rule="evenodd" data-name="Path 2175"/><path d="M71.404 826.785h17.671v2.04h-17.67v-2.04z" fill="#a5947a" fill-rule="evenodd" data-name="Rectangle 5"/><path d="M71.123 865.135h18.233v3.531H71.123v-3.531z" fill="#a5947a" fill-rule="evenodd" data-name="Rectangle 6"/></g><path d="M498.454 925.534c.347-1.113.584-2.273.584-3.497 0-5.113-3.266-9.422-7.802-11.071 0-.058.013-.113.013-.174a4.022 4.022 0 0 0-2.662-3.779l-.565-1.725a.952.952 0 0 0 .18-.538.98.98 0 0 0-.574-.885l-.353-5.435c0-.024-.024-.041-.047-.041-.03 0-.057.017-.057.041l-.354 5.435a.98.98 0 0 0-.58.885c0 .205.079.386.189.543l-.568 1.72c-1.552.565-2.667 2.033-2.667 3.779 0 .061.014.116.018.174-4.542 1.649-7.804 5.962-7.804 11.071 0 1.224.239 2.384.583 3.497h-4.081v.053h-.401V905.07h.214a.927.927 0 0 0 .927-.933v-.531a.93.93 0 0 0-.927-.931h-1.263c.055-.347.089-.689.089-1.059a6.938 6.938 0 0 0-3.305-5.906 11 11 0 0 1-3.102-2.896.806.806 0 0 0 .25-.586.793.793 0 0 0-.479-.73l-.203-3.154h-.235l-.205 3.154a.796.796 0 0 0-.477.73c0 .23.092.439.25.586a10.7 10.7 0 0 1-3.106 2.896 6.935 6.935 0 0 0-3.3 5.906c0 .37.033.712.083 1.059h-1.223a.934.934 0 0 0-.933.931v.531c0 .517.419.933.933.933h.182v13.08h-3.034c.786-1.475 1.213-3.047 1.213-4.674 0-5.683-5.175-10.655-12.934-13.434-5.05-1.812-9.354-4.252-12.704-7.091.13-.249.217-.517.217-.819 0-.742-.448-1.379-1.092-1.66l-.463-7.165h-.534l-.461 7.165a1.815 1.815 0 0 0-1.094 1.66c0 .302.089.57.214.819-3.352 2.856-7.609 5.264-12.705 7.091-7.759 2.779-12.93 7.751-12.93 13.434 0 .947.164 1.869.445 2.769h-2.222a24.515 24.515 0 0 0 1.1-7.276c0-12.624-9.505-23.013-21.743-24.429l-1.554-4.735c-.016-.052-.162-.094-.356-.125l-.853-13.107c0-.046-.047-.087-.108-.087a.113.113 0 0 0-.11.087l-.85 13.107c-.196.031-.34.073-.358.125l-1.55 4.735c-9.163 1.057-16.787 7.145-20.046 15.436l-.264-13.809h1.298v-2.453h-1.344l-.33-17.509h1.483v-1.423h-.87v-.475h-.883v-6.372h.883v-.61h-1.388c.12-.378.178-.78.178-1.198a4.035 4.035 0 0 0-1.934-3.456 6.407 6.407 0 0 1-1.808-1.697.458.458 0 0 0 .146-.335.482.482 0 0 0-.279-.436l-.107-1.631a1.213 1.213 0 0 0 1.417-1.035 1.021 1.021 0 0 1-1.94-.444c0-.405.24-.749.587-.915a1.213 1.213 0 0 0-1.065 1.196c0 .538.355.99.84 1.153l-.11 1.676a.47.47 0 0 0-.276.436c0 .13.054.252.144.335a6.268 6.268 0 0 1-1.818 1.697 4.05 4.05 0 0 0-1.744 4.654h-1.386v.61h.849v6.372h-.85v.475h-.876v1.423h1.486l-.332 17.509h-1.354v2.453h1.303l-.362 19.128h-1.919v2.454h1.869l-.165 8.654h-6.647c2.103-3.938 3.236-8.126 3.236-12.473 0-15.15-13.8-28.411-34.49-35.83-13.432-4.814-25.011-11.223-33.944-18.754a4.809 4.809 0 0 0 .623-2.332 4.848 4.848 0 0 0-2.91-4.439l-1.237-19.115h-1.435l-1.236 19.115a4.845 4.845 0 0 0-2.905 4.439c0 .854.233 1.641.621 2.335-8.94 7.559-20.4 13.899-33.942 18.751-3.855 1.381-7.47 2.97-10.806 4.734v-55.247h.352a1.5 1.5 0 0 0 1.508-1.5v-.859c0-.832-.673-1.505-1.508-1.505h-2.044c.083-.559.142-1.124.142-1.701 0-4.047-2.131-7.588-5.34-9.564a17.814 17.814 0 0 1-5.026-4.683 1.27 1.27 0 0 0 .417-.943c0-.535-.324-.985-.779-1.182l-.332-5.104h-.381l-.327 5.104a1.286 1.286 0 0 0-.367 2.125 17.415 17.415 0 0 1-5.024 4.683 11.212 11.212 0 0 0-5.337 9.564c0 .577.053 1.142.143 1.701h-1.983c-.833 0-1.505.673-1.505 1.505v.859a1.5 1.5 0 0 0 1.505 1.5h.292v35.142c-4.034-12.016-12.197-22.141-22.8-28.692a84.608 84.608 0 0 1-24.081-22.448 6.183 6.183 0 0 0 1.964-4.517c0-2.54-1.53-4.717-3.72-5.679l-1.4-21.673c.93.168 1.884.272 2.86.272 8.186 0 14.931-6.111 15.96-14.014-2.186 4.533-6.814 7.669-12.187 7.669-7.482 0-13.544-6.059-13.544-13.537 0-5.376 3.139-10.004 7.674-12.187-7.905 1.022-14.013 7.769-14.013 15.959 0 7.139 4.655 13.184 11.09 15.299l-1.436 22.212a6.206 6.206 0 0 0-3.716 5.679c0 1.787.762 3.39 1.967 4.522a83.809 83.809 0 0 1-24.075 22.443c-15.36 9.48-25.607 26.441-25.607 45.829 0 5.55.849 10.907 2.404 15.949h-12.81c.063-.838.099-1.689.099-2.542 0-17.872-13.459-32.577-30.788-34.594l-2.201-6.702c-.02-.066-.218-.124-.508-.173l-1.2-18.562c0-.063-.068-.116-.154-.116-.082 0-.153.053-.156.116l-1.202 18.562c-.287.049-.478.107-.505.173l-2.201 6.702c-17.327 2.017-30.782 16.722-30.782 34.594 0 3.585.54 7.048 1.549 10.306h-8.486v5.227H-.29v7.39h-5.613l-.711-17.939h3.283v-4.304h-3.367l-.637-33.596h2.276v-4.31h-2.356l-.587-30.756h2.596v-2.499h-1.52v-.832h-1.551v-11.19h1.552v-1.075h-2.44a6.855 6.855 0 0 0 .323-2.111 7.112 7.112 0 0 0-3.394-6.062 11.117 11.117 0 0 1-3.181-2.973l-.003-.008a.815.815 0 0 0 .26-.591c0-.334-.2-.623-.493-.749l-.186-2.873c.123.016.249.035.38.035a2.131 2.131 0 0 0 2.114-1.854 1.792 1.792 0 1 1-2.395-2.391 2.129 2.129 0 0 0-1.854 2.114c0 .945.619 1.736 1.47 2.012l-.19 2.957a.811.811 0 0 0-.233 1.34v.008a10.97 10.97 0 0 1-3.191 2.973c-2.033 1.26-3.39 3.501-3.39 6.062 0 .737.11 1.444.323 2.111h-2.437v1.075h1.498v11.19h-1.498v.832h-1.537v2.499h2.613l-.586 30.756h-2.371v4.31h2.287l-.642 33.596h-3.373v4.304h3.289l-.715 18.066h-6.306v-47.367h.536a2.295 2.295 0 0 0 2.293-2.301v-1.299a2.295 2.295 0 0 0-2.293-2.301h-3.113c.13-.849.215-1.714.215-2.595 0-6.164-3.253-11.557-8.136-14.572a26.753 26.753 0 0 1-7.654-7.145c.377-.359.625-.858.625-1.432 0-.804-.491-1.498-1.187-1.803l-.5-7.774h-.583l-.505 7.774a1.971 1.971 0 0 0-1.184 1.803c0 .574.245 1.073.634 1.441a26.832 26.832 0 0 1-7.664 7.136c-4.885 3.015-8.136 8.408-8.136 14.572 0 .881.087 1.746.216 2.595h-3.02a2.3 2.3 0 0 0-2.297 2.301v1.299a2.3 2.3 0 0 0 2.297 2.301h.442v66.631h-.604V926h574.938v-.466h-4.083ZM-62.96 891.498h-6.312v-17.842c0-4.543 1.34-8.354 3.157-9.518 1.82 1.164 3.155 4.975 3.155 9.518v17.842Zm18.664 0h-15.988v-19.734c0-5.014 3.388-9.227 7.998-10.518 4.608 1.291 7.99 5.504 7.99 10.518v19.734Zm9.044 0h-6.315v-17.842c0-4.543 1.334-8.354 3.158-9.518 1.818 1.164 3.157 4.975 3.157 9.518v17.842Zm14.14-79.545h-1.507v-9.163c0-.335.269-.605.604-.605h.296c.335 0 .607.27.607.605v9.163Zm2.826.007h-1.507v-9.17c0-.335.272-.605.607-.605h.299c.329 0 .6.27.6.605v9.17Zm2.834 0h-1.507v-9.17c0-.335.273-.605.6-.605h.303c.332 0 .604.27.604.605v9.17Zm2.829 0h-1.504v-9.17c0-.335.269-.605.6-.605h.3c.332 0 .604.27.604.605v9.17Zm2.826 0h-1.504v-9.17c0-.335.269-.605.606-.605h.294c.33 0 .604.27.604.605v9.17Zm205.169 26.978h-4.144v-11.699c0-2.981.881-5.483 2.075-6.246 1.195.763 2.069 3.265 2.069 6.246v11.699Zm12.25 0h-10.492v-12.944c0-3.288 2.221-6.052 5.245-6.895 3.023.843 5.247 3.607 5.247 6.895v12.944Zm5.93 0h-4.14v-11.699c0-2.981.874-5.483 2.067-6.246 1.195.763 2.073 3.265 2.073 6.246v11.699Zm129.502 25.363h-.856v-5.218c0-.187.152-.342.342-.342h.172c.187 0 .342.155.342.342v5.218Zm1.616.003h-.862v-5.216c0-.192.153-.347.348-.347h.167c.192 0 .347.155.347.347v5.216Zm1.608.003h-.858v-5.219c0-.192.155-.347.347-.347h.168c.19 0 .343.155.343.347v5.219Zm1.61 0h-.853v-5.219c0-.192.15-.347.344-.347h.166c.19 0 .343.155.343.347v5.219Zm1.61 0h-.851v-5.219c0-.192.148-.347.34-.347h.174c.185 0 .337.155.337.347v5.219Zm109.765 53.843h-2.563v-7.115c0-1.845.542-3.394 1.28-3.859.741.465 1.283 2.014 1.283 3.859v7.115Zm7.57.122h-4.919v-.122h-1.57v-7.883a4.437 4.437 0 0 1 3.247-4.273 4.442 4.442 0 0 1 3.242 4.273v8.005Zm3.669 0h-2.565v-7.237c0-1.845.544-3.394 1.286-3.859.738.465 1.279 2.014 1.279 3.859v7.237Z" fill="#e1c8a3" fill-rule="evenodd" data-name="Path 2176"/></g></svg>