<svg xmlns="http://www.w3.org/2000/svg" width="222.881" height="76.141" viewBox="102.56 392.981 222.881 76.141"><g data-name="Mask Group 5" transform="translate(11.8 87.399)" clip-path="url(&quot;#a&quot;)"><g data-name="Layer_x0020_1"><g data-name="_1804406063056"><path d="M126.251 349.607c0-1.524-.338-2.765-1.128-4.064l-13.095-21.617v55.426h6.378c4.346 0 7.845-3.556 7.845-7.902v-21.9Zm45.437 21.9-.057-31.495-18.344 30.761c-.62 1.073-1.693 1.637-2.878 1.637h-3.048c-1.185 0-2.258-.564-2.879-1.637l-15.521-25.568-2.653-4.403-13.095-21.504c-.79-1.299-1.129-2.597-1.129-4.12v-1.468h8.128c2.822 0 5.306 1.354 6.717 3.838l22.238 36.97 21.9-36.914c1.467-2.483 3.894-3.838 6.773-3.838h7.958l.17 65.586h-6.379a7.829 7.829 0 0 1-7.845-7.845Z" fill="#0e4559" fill-rule="evenodd" data-name="Path 3684"/><path d="M253.924 349.607c0-1.524-.339-2.765-1.129-4.064l-13.094-21.617v55.426h6.378c4.346 0 7.845-3.556 7.845-7.902v-21.9Zm45.436 21.9-.056-31.495-18.344 30.761c-.62 1.073-1.693 1.637-2.879 1.637h-3.047c-1.186 0-2.258-.564-2.879-1.637l-15.522-25.568-2.652-4.403-13.095-21.504c-.79-1.299-1.129-2.597-1.129-4.12v-1.468h8.128c2.822 0 5.305 1.354 6.716 3.838l22.239 36.97 21.9-36.914c1.467-2.483 3.894-3.838 6.773-3.838h7.958l.17 65.586h-6.379a7.829 7.829 0 0 1-7.845-7.845Z" fill="#0e4559" fill-rule="evenodd" data-name="Path 3685"/><path d="M99.046 326.974h7.281v52.435c-2.822-11.12-6.265-21.674-15.183-27.431V334.819c0-4.346 3.556-7.845 7.846-7.845Z" fill="#e5be85" fill-rule="evenodd" data-name="Path 3686"/><path d="M91.37 323.418h14.45c1.975-2.37.677-6.83-.847-8.749-.678-.846-2.032-2.144-2.879-2.935-2.935-2.709-2.878-4.797-4.572-2.257-1.637 2.54-2.878 2.652-4.402 4.572-2.032 2.483-3.161 5.53-1.694 9.313Z" fill="#e5be85" fill-rule="evenodd" data-name="Path 3687"/><g data-name="Group 310"><path d="M235.355 354.97h-14.28V347.8h14.28v7.168Zm-14.28 19.585v-19.586h14.28v19.586l-7.169 7.168-7.168-7.168Zm14.28 0v7.168h-7.169l7.169-7.168Zm-37.535-7.168h30.366v14.28H197.82l-7.168-7.169 7.168-7.168Zm0 14.28h-7.168v-7.169l7.168 7.169Zm7.169-26.754v19.585h-14.28v-19.585h14.28Zm0 0h-14.28v-7.168h14.28v7.168Z" fill="#e5be85" fill-rule="evenodd" data-name="Path 3688"/></g><g data-name="Group 311"><path d="M221.075 340.972h14.28v7.168h-14.28v-7.168Zm14.28-9.088v9.088h-14.28v-9.088h14.28Zm-22.352-11.909v-14.28l1.411.056 1.355.17 1.298.282 1.298.395 1.242.452 1.185.564 1.13.621 1.072.677 1.016.734.96.734.902.79.847.847.79.846.79.903.734.903.677.903.621.96.621.96.564.959.565 1.016.508 1.016.451 1.016.452 1.016.395 1.016.339 1.016.338 1.016.283 1.072.225 1.073.17 1.072.113 1.072.112 1.073.057 1.072h-14.28v-.282l-.056-.339-.057-.395-.056-.451-.113-.508-.113-.508-.17-.565-.169-.564-.226-.565-.225-.564-.283-.564-.282-.565-.338-.564-.34-.565-.338-.564-.338-.508-.395-.508-.396-.452-.395-.451-.395-.395-.395-.395-.395-.339-.339-.282-.338-.226-.339-.226-.282-.169-.282-.113-.226-.113-.226-.056-.17-.057h-.338l-.226-.169Zm-8.07 11.91h-14.28l.056-1.073.113-1.072.112-1.073.17-1.072.226-1.073.282-1.072.338-1.016.339-1.016.395-1.016.452-1.016.451-1.016.508-1.016.565-1.016.564-.96.62-.959.622-.96.677-.903.734-.903.79-.903.79-.846.847-.847.903-.79.96-.734 1.015-.734 1.073-.677 1.129-.62 1.185-.565 1.242-.452 1.298-.395 1.298-.282 1.355-.17 1.41-.056v14.28h-.338l-.17.057-.225.056-.226.113-.282.113-.282.17-.339.225-.339.226-.338.282-.395.338-.395.396-.395.395-.396.451-.395.452-.395.508-.338.508-.34.564-.338.565-.338.564-.283.564-.282.565-.226.564-.225.565-.17.564-.169.565-.113.507-.113.508-.056.452-.057.395-.056.339v.282l-.226.17Zm-14.28 9.087v-9.088h14.28v9.088h-14.28Zm0 0h14.28v7.168h-14.28v-7.168Z" fill="#e5be85" fill-rule="evenodd" data-name="Path 3689"/></g></g></g></g><defs><clipPath id="a"><path d="M0 0h250v132.102H0V0z" data-name="Rectangle 7" transform="translate(77.2 277.601)"/></clipPath></defs></svg>